<svg width="813" height="705" viewBox="0 0 813 705" fill="none" xmlns="http://www.w3.org/2000/svg">
<path d="M26.2853 50C29.9745 29.6 10.2989 8.16667 0 0H813V670C780.72 690 661.283 705 635.459 705C609.635 705 563.981 704 519.25 693.5C474.519 683 405.347 622.5 382.751 605.5C360.155 588.5 301.589 574.5 259.625 586C217.661 597.5 144.8 616 122.204 554.5C99.6075 493 145.722 455.5 162.323 433C178.925 410.5 219.505 386.5 214.433 321.5C209.36 256.5 149.872 242 122.204 230.5C94.5349 219 53.0318 211.5 26.2853 178.5C-0.461146 145.5 21.6739 75.5 26.2853 50Z" fill="#52ACD2"/>
<g filter="url(#filter0_d_501_1000)">
<path d="M46.2853 40C49.9745 19.6 30.2989 -1.83333 20 -10H833V660C800.72 680 681.283 695 655.459 695C629.635 695 583.981 694 539.25 683.5C494.519 673 425.347 612.5 402.751 595.5C380.155 578.5 321.589 564.5 279.625 576C237.661 587.5 164.8 606 142.204 544.5C119.607 483 165.722 445.5 182.323 423C198.925 400.5 239.505 376.5 234.433 311.5C229.36 246.5 169.872 232 142.204 220.5C114.535 209 73.0318 201.5 46.2853 168.5C19.5389 135.5 41.6739 65.5 46.2853 40Z" fill="#5AC7F5"/>
</g>
<g clip-path="url(#clip0_501_1000)">
<path d="M419.123 152.941L324.277 335.999L409.592 380.242L504.438 197.184L419.123 152.941Z" fill="#78C2A4"/>
<path d="M431.912 172.428L480.733 197.755C478.687 201.696 480.565 206.863 484.924 209.11C485.058 209.194 485.393 209.345 485.393 209.345L408.809 357.081L408.34 356.829C403.997 354.582 398.783 355.907 396.705 359.915L396.621 360.033L348.906 335.276C352.394 328.533 348.253 325.581 343.894 323.334C343.76 323.25 343.709 323.3 343.709 323.3L420.293 175.564C420.293 175.581 420.31 175.598 420.461 175.665C424.803 177.929 429.883 176.369 431.912 172.428Z" fill="#B3E59F"/>
<path d="M435.558 287.826C447.362 276.016 447.362 256.868 435.558 245.058C423.753 233.248 404.614 233.248 392.809 245.058C381.004 256.868 381.004 276.016 392.809 287.826C404.614 299.636 423.753 299.636 435.558 287.826Z" fill="url(#paint0_linear_501_1000)"/>
<path d="M430.889 278.55L428.056 277.074C426.396 279.976 424.183 282.542 422.205 284.135C421.86 284.414 421.425 284.559 420.982 284.544C420.539 284.529 420.116 284.354 419.79 284.052L417.527 281.955C417.33 281.774 417.174 281.553 417.07 281.307C416.966 281.06 416.916 280.794 416.924 280.527C416.932 280.259 416.998 279.997 417.116 279.757C417.235 279.517 417.403 279.306 417.611 279.137C419.804 277.327 421.621 275.105 422.959 272.596C424.434 269.744 424.585 267.111 422.59 266.088C420.595 265.065 418.902 266.256 415.784 269.66C411.307 274.508 406.73 277.292 401.768 274.709C397.275 272.378 395.548 267.312 397.576 261.14L394.743 259.664C394.308 259.432 393.981 259.038 393.834 258.567C393.686 258.097 393.73 257.587 393.955 257.148L394.81 255.487C394.923 255.27 395.078 255.077 395.266 254.92C395.454 254.763 395.67 254.644 395.904 254.571C396.138 254.498 396.383 254.471 396.627 254.493C396.871 254.515 397.108 254.585 397.325 254.699L399.873 256.007C401.399 253.324 402.908 251.579 404.283 250.288C404.624 249.969 405.073 249.792 405.54 249.792C406.007 249.792 406.456 249.969 406.797 250.288L408.91 252.217C409.098 252.395 409.248 252.61 409.349 252.849C409.451 253.088 409.503 253.345 409.501 253.604C409.5 253.863 409.445 254.12 409.34 254.357C409.236 254.595 409.083 254.808 408.893 254.984C407.109 256.564 405.636 258.464 404.551 260.586C402.79 263.974 403.696 265.668 404.953 266.306C406.496 267.111 408.608 265.635 412.246 261.945C417.376 256.645 421.35 255.387 426.027 257.819C430.319 260.05 432.532 265.232 430.302 271.925L433.471 273.569C433.69 273.68 433.884 273.834 434.043 274.021C434.202 274.208 434.322 274.425 434.397 274.659C434.471 274.893 434.499 275.139 434.479 275.384C434.458 275.628 434.389 275.867 434.276 276.084L433.404 277.745C433.292 277.964 433.139 278.158 432.951 278.317C432.764 278.476 432.548 278.596 432.314 278.671C432.08 278.746 431.834 278.774 431.59 278.753C431.345 278.732 431.107 278.663 430.889 278.55Z" fill="white"/>
<path opacity="0.7" d="M348.035 342.74C347.986 342.739 347.938 342.721 347.901 342.69L331.906 334.387C331.859 334.363 331.817 334.33 331.782 334.29C331.748 334.249 331.722 334.203 331.705 334.152C331.669 334.048 331.675 333.933 331.722 333.834L355.16 288.647C355.21 288.551 355.296 288.477 355.399 288.443C355.502 288.409 355.615 288.416 355.713 288.463C355.761 288.488 355.804 288.522 355.838 288.563C355.873 288.604 355.899 288.652 355.914 288.704C355.93 288.756 355.935 288.81 355.929 288.864C355.924 288.917 355.907 288.969 355.881 289.016L332.644 333.85L348.269 341.968C348.366 342.019 348.439 342.105 348.474 342.208C348.508 342.311 348.501 342.424 348.454 342.522C348.412 342.595 348.351 342.654 348.276 342.693C348.202 342.731 348.118 342.748 348.035 342.74Z" fill="white"/>
<path d="M473.758 245.172L473.607 245.122C473.559 245.097 473.517 245.063 473.482 245.021C473.448 244.98 473.422 244.932 473.406 244.88C473.391 244.829 473.386 244.774 473.391 244.721C473.397 244.667 473.413 244.615 473.44 244.568L496.391 200.288L479.643 191.599C479.546 191.549 479.473 191.463 479.439 191.36C479.404 191.256 479.411 191.144 479.458 191.046C479.483 190.998 479.517 190.955 479.559 190.921C479.6 190.886 479.648 190.86 479.7 190.845C479.751 190.829 479.805 190.824 479.859 190.83C479.913 190.835 479.965 190.852 480.012 190.878L497.129 199.751C497.179 199.776 497.222 199.811 497.257 199.855C497.292 199.898 497.317 199.948 497.33 200.002C497.348 200.051 497.356 200.103 497.353 200.155C497.35 200.207 497.336 200.258 497.313 200.304L474.177 244.937C474.14 245.014 474.08 245.079 474.005 245.121C473.93 245.163 473.844 245.18 473.758 245.172Z" fill="white"/>
<path d="M448.521 147.228L313.581 303.077L386.693 366.437L521.633 210.588L448.521 147.228Z" fill="#8DD8B8"/>
<path d="M456.456 168.989L498.051 204.984C495.151 208.322 495.972 213.907 499.677 217.128C499.795 217.228 499.778 217.178 500.264 217.58L391.44 343.461L390.887 342.958C387.182 339.754 381.7 339.788 378.749 343.193C378.715 343.243 378.531 343.226 378.531 343.226L337.875 308.054C342.837 302.317 339.451 298.409 335.729 295.189C335.612 295.088 335.494 295.038 335.494 295.055L444.318 169.174C444.373 169.252 444.435 169.325 444.503 169.392C448.208 172.595 453.573 172.344 456.456 168.989Z" fill="#C1EAAD"/>
<path d="M438.786 277.645C450.591 265.835 450.591 246.687 438.786 234.877C426.981 223.067 407.842 223.067 396.037 234.877C384.232 246.687 384.232 265.835 396.037 277.645C407.842 289.455 426.981 289.455 438.786 277.645Z" fill="url(#paint1_linear_501_1000)"/>
<path d="M430.839 271.925L428.425 269.828C426.145 272.26 423.395 274.239 421.081 275.346C420.681 275.532 420.228 275.568 419.803 275.448C419.379 275.328 419.011 275.06 418.768 274.692L417.041 272.126C416.892 271.904 416.792 271.653 416.749 271.39C416.705 271.126 416.719 270.856 416.789 270.599C416.859 270.341 416.984 270.101 417.154 269.896C417.325 269.691 417.538 269.525 417.779 269.409C420.025 268.285 422.49 266.624 424.518 264.276C426.547 261.928 427.352 259.328 425.675 257.869C423.999 256.41 422.037 257.165 418.214 259.764C412.732 263.438 407.636 265.081 403.394 261.408C399.571 258.104 399.068 252.77 402.489 247.235L400.074 245.155C399.888 244.996 399.734 244.801 399.623 244.582C399.512 244.364 399.445 244.125 399.426 243.88C399.408 243.636 399.437 243.39 399.514 243.156C399.591 242.923 399.713 242.708 399.873 242.522L401.114 241.096C401.437 240.726 401.894 240.499 402.384 240.465C402.873 240.43 403.357 240.591 403.729 240.912L405.909 242.79C408.021 240.543 409.882 239.184 411.525 238.245C411.932 238.014 412.41 237.947 412.865 238.055C413.319 238.164 413.715 238.442 413.973 238.832L415.566 241.197C415.712 241.412 415.811 241.656 415.857 241.912C415.904 242.168 415.896 242.431 415.834 242.684C415.773 242.937 415.659 243.174 415.5 243.38C415.341 243.586 415.141 243.757 414.912 243.88C412.814 245.007 410.943 246.514 409.396 248.325C406.898 251.21 407.384 253.055 408.457 253.994C409.53 254.934 412.179 254.179 416.555 251.428C422.791 247.47 426.932 247.168 430.923 250.623C434.594 253.793 435.533 259.362 431.794 265.333L434.51 267.681C434.881 268.008 435.108 268.467 435.143 268.96C435.177 269.453 435.016 269.94 434.695 270.315L433.471 271.723C433.312 271.91 433.117 272.064 432.899 272.175C432.68 272.286 432.441 272.353 432.197 272.372C431.952 272.391 431.706 272.361 431.473 272.284C431.24 272.207 431.025 272.085 430.839 271.925Z" fill="white"/>
<path opacity="0.7" d="M336.047 314.931L335.93 314.847L321.814 302.653C321.732 302.579 321.683 302.476 321.677 302.366C321.67 302.256 321.708 302.148 321.78 302.066L354.657 264.041C354.691 263.998 354.734 263.962 354.782 263.936C354.831 263.909 354.884 263.893 354.939 263.889C354.994 263.884 355.05 263.891 355.102 263.908C355.155 263.926 355.203 263.954 355.244 263.991C355.325 264.065 355.374 264.168 355.381 264.278C355.387 264.388 355.35 264.496 355.277 264.578L322.669 302.301L336.467 314.226C336.537 314.291 336.582 314.379 336.596 314.474C336.61 314.569 336.59 314.665 336.541 314.748C336.492 314.83 336.416 314.893 336.327 314.926C336.237 314.96 336.138 314.961 336.047 314.931Z" fill="white"/>
<path d="M480.112 249.332L479.978 249.264C479.897 249.191 479.848 249.088 479.841 248.978C479.835 248.868 479.872 248.76 479.945 248.677L512.553 210.955L498.755 199.03C498.685 198.955 498.644 198.857 498.641 198.754C498.638 198.651 498.673 198.55 498.739 198.471C498.806 198.393 498.898 198.341 499 198.326C499.102 198.312 499.206 198.335 499.292 198.392L513.391 210.603C513.476 210.675 513.53 210.777 513.542 210.888C513.542 210.997 513.507 211.103 513.442 211.19L480.565 249.214C480.511 249.278 480.439 249.324 480.357 249.345C480.276 249.366 480.19 249.362 480.112 249.332Z" fill="white"/>
<path d="M486.557 150.06L311.019 258.1L361.703 340.523L537.241 232.483L486.557 150.06Z" fill="#78C2A4"/>
<path d="M487.623 173.568L516.426 220.415C512.654 222.73 511.681 228.298 514.247 232.475L514.615 233.079L372.915 320.264L372.562 319.66C369.997 315.484 364.817 313.857 360.978 316.222C360.927 316.256 360.81 316.188 360.81 316.188L332.644 270.382C339.116 266.406 336.986 261.643 334.421 257.466C334.354 257.372 334.268 257.292 334.17 257.232L475.871 170.046C475.919 170.14 475.975 170.229 476.038 170.314C478.603 174.491 483.851 175.883 487.623 173.568Z" fill="#B3E59F"/>
<path d="M445.384 266.43C457.189 254.62 457.189 235.472 445.384 223.662C433.579 211.852 414.44 211.852 402.635 223.662C390.83 235.472 390.83 254.62 402.635 266.43C414.44 278.24 433.579 278.24 445.384 266.43Z" fill="#95D6A4"/>
<path d="M421.098 262.414C420.763 258.054 420.433 253.681 420.109 249.298C420.042 248.426 420.025 247.537 419.992 246.648C419.992 246.564 419.975 246.48 419.975 246.329L419.69 246.564L413.671 251.982L413.436 252.183C413.235 252.317 413.034 252.334 412.866 252.133L411.156 250.237C411.117 250.199 411.087 250.153 411.068 250.101C411.048 250.05 411.041 249.995 411.046 249.94C411.051 249.886 411.068 249.833 411.095 249.786C411.123 249.738 411.161 249.698 411.207 249.667L411.374 249.499L421.048 240.811C421.467 240.425 421.618 240.442 422.003 240.861C422.389 241.281 422.708 241.65 423.043 242.052C423.162 242.196 423.238 242.37 423.261 242.555C423.63 247.235 423.982 251.931 424.334 256.611C424.367 257.114 424.367 257.601 424.401 258.171L424.652 257.936L431.275 251.982C431.677 251.613 431.845 251.63 432.197 252.015L433.639 253.625C433.94 253.978 433.94 254.145 433.588 254.464L423.16 263.823C423.086 263.911 422.988 263.977 422.879 264.012C422.769 264.048 422.652 264.052 422.54 264.025L421.098 262.414Z" fill="#65A589"/>
<path d="M428.274 235.897C428.295 235.766 428.323 235.638 428.358 235.511C428.542 234.538 428.726 233.548 428.944 232.575C429.162 231.603 430.001 231.368 430.671 231.871C431.342 232.374 431.174 232.592 431.074 233.062C430.872 234.068 430.688 235.075 430.487 236.081C430.369 236.618 430.286 237.154 430.151 237.674C430.133 237.762 430.137 237.852 430.163 237.937C430.19 238.023 430.238 238.1 430.302 238.161L439.406 248.308C439.808 248.761 439.808 248.879 439.356 249.281L437.411 251.026C436.925 251.462 436.807 251.462 436.371 250.975C434.024 248.376 431.694 245.759 429.363 243.159L429.129 242.908C429.095 243.042 429.078 243.142 429.062 243.226C428.827 244.4 428.609 245.558 428.358 246.715C428.329 246.905 428.251 247.083 428.131 247.233C428.012 247.383 427.855 247.499 427.676 247.569C427.498 247.638 427.304 247.66 427.114 247.631C426.925 247.601 426.747 247.523 426.597 247.403C426.212 247.101 426.128 246.698 426.212 246.229L426.815 243.26C426.949 242.555 427.083 241.851 427.234 241.146C427.264 241.059 427.267 240.964 427.243 240.875C427.219 240.785 427.17 240.705 427.1 240.643L419.405 232.072C419.019 231.653 419.036 231.502 419.455 231.116L421.534 229.254C421.869 228.953 422.037 228.953 422.339 229.288L428.022 235.628L428.274 235.897Z" fill="#65A589"/>
<path opacity="0.7" d="M328.369 276.705C328.276 276.672 328.199 276.607 328.151 276.52L318.377 260.637C318.327 260.538 318.309 260.427 318.326 260.318C318.363 260.218 318.427 260.131 318.511 260.066L361.866 233.397C361.96 233.341 362.072 233.323 362.178 233.348C362.285 233.373 362.377 233.439 362.436 233.532C362.489 233.626 362.504 233.737 362.479 233.843C362.454 233.948 362.391 234.04 362.302 234.102L319.299 260.553L328.855 276.101C328.883 276.146 328.901 276.196 328.909 276.249C328.917 276.301 328.915 276.354 328.903 276.406C328.89 276.457 328.868 276.506 328.837 276.548C328.805 276.591 328.766 276.627 328.721 276.655C328.669 276.686 328.611 276.707 328.55 276.716C328.49 276.725 328.428 276.721 328.369 276.705Z" fill="white"/>
<path d="M486.014 257.282C485.929 257.251 485.858 257.192 485.812 257.114C485.782 257.068 485.762 257.017 485.752 256.963C485.742 256.909 485.744 256.854 485.756 256.8C485.769 256.747 485.792 256.696 485.825 256.652C485.858 256.608 485.899 256.571 485.947 256.544L528.413 230.412L518.857 214.88C518.828 214.835 518.809 214.785 518.8 214.732C518.791 214.679 518.792 214.625 518.804 214.573C518.815 214.521 518.837 214.471 518.868 214.428C518.899 214.384 518.938 214.347 518.983 214.318C519.028 214.29 519.078 214.27 519.131 214.261C519.183 214.252 519.237 214.253 519.29 214.265C519.342 214.276 519.391 214.298 519.435 214.329C519.479 214.36 519.516 214.399 519.544 214.444L529.319 230.328C529.351 230.374 529.372 230.426 529.38 230.481C529.389 230.537 529.385 230.593 529.369 230.647C529.359 230.7 529.338 230.75 529.306 230.794C529.274 230.838 529.232 230.873 529.184 230.898L486.382 257.248C486.326 257.279 486.265 257.297 486.201 257.303C486.138 257.309 486.074 257.302 486.014 257.282Z" fill="white"/>
<path d="M380.174 275.296C381.065 276.739 381.508 278.414 381.447 280.11C381.386 281.805 380.823 283.444 379.83 284.819C378.837 286.194 377.459 287.243 375.87 287.834C374.281 288.425 372.552 288.531 370.902 288.139C369.253 287.746 367.757 286.873 366.604 285.629C365.451 284.385 364.693 282.827 364.425 281.152C364.158 279.477 364.393 277.761 365.102 276.22C365.81 274.678 366.959 273.382 368.405 272.495C370.337 271.308 372.662 270.937 374.868 271.462C377.074 271.987 378.982 273.366 380.174 275.296Z" fill="#95D6A4"/>
<path d="M487.36 219.544C491.305 216.932 492.387 211.614 489.775 207.667C487.164 203.719 481.848 202.637 477.903 205.25C473.957 207.863 472.876 213.181 475.487 217.128C478.099 221.075 483.414 222.157 487.36 219.544Z" fill="#95D6A4"/>
<path d="M637.612 263.215C655.473 245.346 655.473 216.374 637.612 198.505C619.751 180.636 590.793 180.636 572.932 198.505C555.071 216.374 555.071 245.346 572.932 263.215C590.793 281.084 619.751 281.084 637.612 263.215Z" fill="url(#paint2_linear_501_1000)"/>
<g opacity="0.7">
<path opacity="0.7" d="M568.818 212.901C568.748 212.9 568.679 212.883 568.617 212.85C568.52 212.8 568.447 212.714 568.412 212.611C568.378 212.508 568.385 212.395 568.432 212.297C575.507 198.292 589.607 189.603 605.282 189.603C607.773 189.599 610.26 189.823 612.709 190.274C612.764 190.282 612.817 190.301 612.864 190.33C612.911 190.36 612.952 190.398 612.983 190.444C613.015 190.49 613.037 190.541 613.047 190.596C613.058 190.65 613.057 190.706 613.045 190.761C613.037 190.815 613.018 190.868 612.989 190.915C612.959 190.962 612.921 191.003 612.875 191.035C612.829 191.066 612.778 191.088 612.723 191.098C612.669 191.109 612.613 191.108 612.559 191.096C603.971 189.534 595.109 190.79 587.293 194.677C579.477 198.564 573.126 204.874 569.187 212.666C569.153 212.735 569.1 212.794 569.035 212.835C568.97 212.877 568.895 212.899 568.818 212.901Z" fill="white"/>
</g>
<path d="M606.238 269.258C626.905 269.258 643.658 252.497 643.658 231.821C643.658 211.145 626.905 194.383 606.238 194.383C585.571 194.383 568.818 211.145 568.818 231.821C568.818 252.497 585.571 269.258 606.238 269.258Z" fill="url(#paint3_linear_501_1000)"/>
<mask id="mask0_501_1000" style="mask-type:alpha" maskUnits="userSpaceOnUse" x="559" y="185" width="93" height="92">
<path d="M637.612 263.215C655.473 245.346 655.473 216.374 637.612 198.505C619.751 180.636 590.793 180.636 572.932 198.505C555.071 216.374 555.071 245.346 572.932 263.215C590.793 281.084 619.751 281.084 637.612 263.215Z" fill="url(#paint4_linear_501_1000)"/>
</mask>
<g mask="url(#mask0_501_1000)">
<path d="M589.456 242.991C595.512 242.991 600.421 235.655 600.421 226.604C600.421 217.554 595.512 210.217 589.456 210.217C583.4 210.217 578.491 217.554 578.491 226.604C578.491 235.655 583.4 242.991 589.456 242.991Z" fill="white"/>
<path d="M592.004 240.039H586.908C586.455 258.456 586.019 276.806 585.566 295.474C585.55 296.581 585.969 297.352 586.74 298.158C587.511 298.963 588.567 299.248 589.674 299.248C590.17 299.234 590.658 299.121 591.11 298.917C591.562 298.713 591.968 298.42 592.306 298.057C592.994 297.352 593.362 296.933 593.346 295.96C592.899 277.119 592.451 258.478 592.004 240.039Z" fill="white"/>
<path d="M631.47 210.888H628.771V230.814H627.044V210.922H624.16V230.814H620.707V210.938H617.84V230.814H614.956V210.905H613.229C613.229 210.905 610.916 228.802 611.335 237.104C611.385 238.111 612.022 239.083 612.86 239.805C614.403 241.146 617.521 243.008 622.601 243.008C627.681 243.008 630.699 241.146 632.241 239.805C632.635 239.469 632.956 239.057 633.184 238.592C633.412 238.128 633.542 237.621 633.566 237.104C633.985 228.785 631.47 210.888 631.47 210.888Z" fill="white"/>
<path d="M625.149 240.039H620.053C619.6 258.456 619.164 276.806 618.712 295.474C618.695 296.581 619.114 297.352 619.885 298.158C620.656 298.963 621.713 299.248 622.819 299.248C623.315 299.236 623.804 299.124 624.256 298.92C624.708 298.715 625.115 298.422 625.451 298.057C626.139 297.352 626.507 296.933 626.491 295.96C626.044 277.119 625.596 258.478 625.149 240.039Z" fill="white"/>
</g>
<path d="M716.618 326.043C734.465 308.187 734.465 279.237 716.618 261.381C698.77 243.525 669.833 243.525 651.985 261.381C634.137 279.237 634.137 308.187 651.985 326.043C669.833 343.899 698.77 343.899 716.618 326.043Z" fill="url(#paint5_linear_501_1000)"/>
<path opacity="0.7" d="M647.883 275.782L647.699 275.732C647.602 275.682 647.529 275.596 647.495 275.493C647.46 275.389 647.467 275.277 647.514 275.179C654.573 261.19 668.672 252.502 684.314 252.502C686.805 252.506 689.29 252.73 691.741 253.173C691.796 253.181 691.849 253.2 691.896 253.229C691.943 253.258 691.984 253.297 692.015 253.343C692.047 253.388 692.069 253.44 692.079 253.494C692.09 253.549 692.089 253.605 692.077 253.659C692.056 253.764 691.996 253.858 691.909 253.92C691.822 253.983 691.714 254.009 691.607 253.994C689.201 253.558 686.76 253.339 684.314 253.34C676.835 253.318 669.499 255.385 663.13 259.308C656.762 263.232 651.615 268.856 648.269 275.548C648.231 275.617 648.175 275.675 648.107 275.717C648.04 275.758 647.962 275.781 647.883 275.782Z" fill="white"/>
<path d="M685.27 332.089C705.918 332.089 722.657 315.343 722.657 294.686C722.657 274.028 705.918 257.282 685.27 257.282C664.622 257.282 647.883 274.028 647.883 294.686C647.883 315.343 664.622 332.089 685.27 332.089Z" fill="url(#paint6_linear_501_1000)"/>
<path d="M693.653 270.046H674.674C673.933 270.046 673.333 270.647 673.333 271.388V318.956C673.333 319.697 673.933 320.298 674.674 320.298H693.653C694.393 320.298 694.994 319.697 694.994 318.956V271.388C694.994 270.647 694.393 270.046 693.653 270.046Z" fill="white"/>
<path d="M709.295 305.655V286.668C709.295 285.927 708.694 285.326 707.954 285.326H660.407C659.666 285.326 659.066 285.927 659.066 286.668V305.655C659.066 306.396 659.666 306.997 660.407 306.997H707.954C708.694 306.997 709.295 306.396 709.295 305.655Z" fill="white"/>
<path d="M464.108 322.685C480.738 306.047 480.738 279.073 464.108 262.435C447.477 245.797 420.515 245.797 403.885 262.435C387.254 279.073 387.254 306.047 403.885 322.685C420.515 339.323 447.477 339.323 464.108 322.685Z" fill="url(#paint7_linear_501_1000)"/>
<path opacity="0.7" d="M400.058 275.85C399.993 275.849 399.929 275.831 399.873 275.799C399.828 275.776 399.788 275.744 399.755 275.706C399.722 275.667 399.697 275.622 399.682 275.574C399.666 275.526 399.66 275.475 399.664 275.424C399.668 275.374 399.682 275.324 399.706 275.279C403.435 267.86 409.47 261.852 416.904 258.156C424.337 254.46 432.768 253.277 440.932 254.783C441.026 254.809 441.107 254.869 441.158 254.952C441.21 255.035 441.227 255.135 441.208 255.231C441.189 255.326 441.134 255.411 441.055 255.468C440.976 255.525 440.878 255.55 440.781 255.538C438.546 255.134 436.279 254.932 434.007 254.934C419.723 254.934 406.848 262.867 400.393 275.632C400.362 275.695 400.315 275.749 400.256 275.787C400.197 275.826 400.128 275.847 400.058 275.85Z" fill="white"/>
<path d="M459.53 318.106C473.135 304.495 473.135 282.427 459.53 268.815C445.925 255.204 423.866 255.204 410.261 268.815C396.656 282.427 396.656 304.495 410.261 318.106C423.866 331.718 445.925 331.718 459.53 318.106Z" fill="url(#paint8_linear_501_1000)"/>
<path d="M466.163 285.578L435.013 276.084C434.315 275.866 433.566 275.866 432.867 276.084L401.717 285.578C401.565 285.619 401.43 285.71 401.334 285.836C401.237 285.962 401.185 286.116 401.185 286.274C401.185 286.432 401.237 286.586 401.334 286.712C401.43 286.838 401.565 286.929 401.717 286.97L432.867 296.463C433.566 296.681 434.315 296.681 435.013 296.463L466.163 286.97C466.316 286.929 466.451 286.838 466.547 286.712C466.644 286.586 466.696 286.432 466.696 286.274C466.696 286.116 466.644 285.962 466.547 285.836C466.451 285.71 466.316 285.619 466.163 285.578Z" fill="white"/>
<path d="M433.94 300.539L412.213 293.931V309.06C412.213 310.267 412.628 311.437 413.388 312.374C414.148 313.312 415.207 313.959 416.387 314.209C428.039 316.675 439.255 316.759 450.002 314.276C451.158 314.01 452.189 313.359 452.926 312.429C453.663 311.5 454.063 310.347 454.059 309.161V294.417L433.94 300.539Z" fill="white"/>
<path d="M407.418 306.762C405.54 307.601 403.88 307.618 402.472 306.812C402.27 306.699 402.111 306.523 402.017 306.312C401.923 306.1 401.901 305.864 401.952 305.638L405.02 290.358L408.071 305.521C408.119 305.771 408.081 306.031 407.962 306.256C407.843 306.482 407.651 306.66 407.418 306.762Z" fill="white"/>
<path d="M433.924 284.722L404.568 287.842V292.941H405.439L405.523 288.463L433.924 284.722Z" fill="white"/>
<path d="M536.093 262.376C553.974 244.488 553.974 215.484 536.093 197.596C518.212 179.707 489.222 179.707 471.341 197.596C453.461 215.484 453.461 244.488 471.341 262.376C489.222 280.265 518.212 280.265 536.093 262.376Z" fill="url(#paint9_linear_501_1000)"/>
<path opacity="0.7" d="M467.203 212.012L467.019 211.978C466.921 211.925 466.847 211.836 466.813 211.73C466.779 211.624 466.786 211.509 466.834 211.408C473.909 197.403 488.026 188.697 503.718 188.697C506.214 188.694 508.706 188.918 511.162 189.368C511.27 189.389 511.367 189.451 511.43 189.542C511.492 189.634 511.517 189.746 511.497 189.855C511.473 189.962 511.409 190.055 511.319 190.117C511.229 190.18 511.119 190.206 511.011 190.19C508.604 189.754 506.164 189.535 503.718 189.536C496.223 189.511 488.87 191.579 482.487 195.509C476.104 199.438 470.944 205.072 467.589 211.777C467.55 211.847 467.495 211.905 467.427 211.946C467.359 211.987 467.282 212.01 467.203 212.012Z" fill="white"/>
<path d="M531.174 257.478C545.807 242.839 545.807 219.103 531.174 204.463C516.541 189.823 492.816 189.823 478.182 204.463C463.549 219.103 463.549 242.839 478.182 257.478C492.816 272.118 516.541 272.118 531.174 257.478Z" fill="url(#paint10_linear_501_1000)"/>
<path d="M529.117 220.415L504.07 201.16L479.039 220.415C478.771 220.617 478.573 220.898 478.473 221.219C478.374 221.54 478.379 221.884 478.487 222.202C478.594 222.52 478.8 222.796 479.074 222.99C479.348 223.184 479.676 223.287 480.012 223.283H483.549C483.515 223.494 483.498 223.707 483.499 223.921V252.653C483.497 253.07 483.577 253.483 483.736 253.868C483.894 254.254 484.127 254.604 484.422 254.899C484.717 255.194 485.067 255.427 485.452 255.586C485.838 255.744 486.251 255.825 486.668 255.823H521.489C521.905 255.823 522.317 255.741 522.702 255.581C523.086 255.422 523.436 255.189 523.73 254.894C524.024 254.6 524.257 254.25 524.417 253.866C524.576 253.481 524.658 253.069 524.658 252.653V223.921C524.661 223.706 524.639 223.492 524.591 223.283H528.145C528.481 223.287 528.809 223.184 529.083 222.99C529.357 222.796 529.562 222.52 529.67 222.202C529.778 221.884 529.783 221.54 529.683 221.219C529.584 220.898 529.386 220.617 529.117 220.415ZM512.218 244.652H495.939V228.365H512.218V244.652Z" fill="white"/>
<path d="M457.06 342.857C456.928 342.858 456.798 342.827 456.681 342.765C456.564 342.704 456.464 342.614 456.389 342.505L454.746 340.224C454.682 340.135 454.637 340.035 454.612 339.928C454.588 339.821 454.585 339.711 454.604 339.603C454.622 339.495 454.662 339.392 454.721 339.3C454.781 339.208 454.857 339.129 454.947 339.067C455.129 338.939 455.353 338.887 455.572 338.922C455.79 338.956 455.987 339.074 456.121 339.251L457.747 341.532C457.874 341.711 457.925 341.932 457.891 342.149C457.856 342.365 457.739 342.559 457.563 342.69C457.42 342.802 457.242 342.861 457.06 342.857Z" fill="white"/>
<path d="M489.199 387.591C489.067 387.59 488.938 387.558 488.821 387.497C488.704 387.435 488.604 387.347 488.529 387.239L485.31 382.777C485.178 382.597 485.124 382.372 485.159 382.152C485.193 381.932 485.314 381.734 485.494 381.603C485.674 381.472 485.899 381.417 486.119 381.452C486.339 381.487 486.536 381.607 486.668 381.787L489.887 386.266C490.014 386.447 490.066 386.671 490.031 386.89C489.997 387.109 489.879 387.306 489.702 387.44C489.553 387.54 489.378 387.592 489.199 387.591ZM482.778 378.651C482.645 378.646 482.514 378.613 482.395 378.552C482.276 378.491 482.172 378.404 482.091 378.299L478.888 373.82C478.761 373.639 478.709 373.415 478.744 373.196C478.778 372.977 478.896 372.78 479.073 372.646C479.163 372.582 479.265 372.536 479.373 372.511C479.481 372.486 479.592 372.483 479.702 372.502C479.811 372.521 479.915 372.561 480.008 372.62C480.102 372.679 480.183 372.757 480.246 372.847L483.465 377.309C483.53 377.399 483.576 377.501 483.6 377.609C483.625 377.717 483.628 377.829 483.609 377.938C483.591 378.047 483.551 378.152 483.491 378.245C483.432 378.339 483.355 378.42 483.264 378.483C483.126 378.593 482.954 378.652 482.778 378.651ZM476.357 369.694C476.222 369.696 476.089 369.665 475.969 369.604C475.849 369.542 475.746 369.452 475.669 369.342L472.451 364.88C472.386 364.79 472.34 364.688 472.316 364.58C472.291 364.472 472.288 364.36 472.307 364.251C472.325 364.142 472.365 364.038 472.425 363.944C472.484 363.851 472.561 363.77 472.652 363.706C472.833 363.579 473.057 363.527 473.276 363.561C473.495 363.596 473.692 363.714 473.825 363.891L477.027 368.369C477.155 368.55 477.207 368.774 477.172 368.993C477.138 369.212 477.02 369.409 476.843 369.543C476.7 369.641 476.53 369.693 476.357 369.694ZM469.919 360.754C469.787 360.755 469.657 360.723 469.54 360.662C469.423 360.6 469.323 360.511 469.248 360.402L466.029 355.924C465.902 355.742 465.85 355.518 465.884 355.299C465.919 355.08 466.037 354.883 466.214 354.749C466.304 354.685 466.406 354.639 466.514 354.614C466.622 354.59 466.733 354.587 466.842 354.605C466.952 354.624 467.056 354.664 467.149 354.723C467.243 354.783 467.324 354.86 467.387 354.951L470.606 359.412C470.671 359.502 470.716 359.604 470.741 359.712C470.766 359.82 470.769 359.932 470.75 360.041C470.732 360.15 470.691 360.255 470.632 360.348C470.573 360.442 470.496 360.523 470.405 360.586C470.268 360.698 470.096 360.757 469.919 360.754ZM463.498 351.797C463.363 351.8 463.23 351.769 463.11 351.707C462.99 351.646 462.887 351.556 462.81 351.445L459.591 346.984C459.527 346.893 459.481 346.791 459.457 346.683C459.432 346.575 459.429 346.464 459.447 346.355C459.466 346.245 459.506 346.141 459.566 346.047C459.625 345.954 459.702 345.873 459.793 345.809C459.974 345.682 460.198 345.63 460.417 345.664C460.636 345.699 460.833 345.817 460.966 345.994L464.168 350.472C464.234 350.561 464.281 350.663 464.307 350.77C464.333 350.877 464.337 350.989 464.32 351.098C464.303 351.207 464.264 351.311 464.207 351.406C464.149 351.5 464.073 351.582 463.984 351.646C463.841 351.744 463.671 351.797 463.498 351.797Z" fill="white"/>
<path d="M494.061 394.333C493.928 394.335 493.797 394.305 493.678 394.247C493.558 394.189 493.454 394.103 493.374 393.998L491.731 391.717C491.667 391.627 491.621 391.525 491.597 391.417C491.572 391.309 491.569 391.197 491.588 391.088C491.607 390.979 491.647 390.875 491.706 390.781C491.765 390.688 491.842 390.607 491.932 390.543C492.022 390.479 492.124 390.433 492.232 390.409C492.34 390.384 492.451 390.381 492.56 390.4C492.669 390.419 492.773 390.459 492.867 390.518C492.961 390.577 493.042 390.654 493.105 390.744L494.732 393.008C494.859 393.19 494.911 393.414 494.876 393.633C494.842 393.852 494.724 394.049 494.547 394.182C494.404 394.28 494.234 394.333 494.061 394.333Z" fill="white"/>
<path d="M648.571 338.161C648.425 338.162 648.281 338.127 648.151 338.06C647.957 337.948 647.815 337.763 647.755 337.547C647.696 337.33 647.724 337.099 647.833 336.903L649.225 334.471C649.34 334.279 649.525 334.141 649.741 334.084C649.958 334.028 650.187 334.058 650.381 334.169C650.477 334.223 650.561 334.295 650.629 334.382C650.696 334.469 650.745 334.569 650.773 334.675C650.802 334.782 650.808 334.893 650.793 335.002C650.777 335.111 650.74 335.215 650.683 335.31L649.292 337.742C649.218 337.868 649.113 337.974 648.987 338.047C648.86 338.121 648.717 338.16 648.571 338.161Z" fill="white"/>
<path d="M612.877 400.271C612.73 400.264 612.587 400.223 612.458 400.154C612.266 400.038 612.128 399.853 612.071 399.637C612.015 399.42 612.045 399.19 612.156 398.996L615.124 393.83C615.239 393.639 615.424 393.5 615.641 393.443C615.857 393.387 616.086 393.417 616.28 393.528C616.376 393.582 616.461 393.655 616.528 393.742C616.595 393.829 616.644 393.928 616.673 394.035C616.701 394.141 616.707 394.252 616.692 394.361C616.676 394.47 616.639 394.575 616.582 394.669L613.615 399.835C613.544 399.969 613.437 400.08 613.307 400.157C613.177 400.234 613.028 400.273 612.877 400.271ZM618.829 389.922C618.682 389.915 618.539 389.875 618.41 389.805C618.218 389.69 618.079 389.504 618.023 389.288C617.967 389.071 617.997 388.842 618.108 388.647L621.075 383.481C621.13 383.386 621.204 383.302 621.291 383.234C621.379 383.167 621.479 383.117 621.585 383.088C621.692 383.059 621.803 383.052 621.913 383.066C622.022 383.08 622.128 383.116 622.224 383.171C622.32 383.226 622.404 383.3 622.471 383.387C622.538 383.475 622.588 383.575 622.617 383.681C622.646 383.788 622.653 383.899 622.639 384.009C622.625 384.118 622.589 384.224 622.534 384.32L619.566 389.486C619.493 389.617 619.386 389.727 619.256 389.803C619.127 389.88 618.979 389.921 618.829 389.922ZM624.781 379.557C624.635 379.557 624.491 379.523 624.361 379.456C624.17 379.34 624.031 379.156 623.971 378.941C623.912 378.725 623.938 378.496 624.043 378.299L627.027 373.132C627.139 372.943 627.321 372.803 627.533 372.744C627.746 372.684 627.973 372.71 628.167 372.814C628.358 372.929 628.498 373.114 628.557 373.329C628.616 373.544 628.591 373.774 628.486 373.971L625.501 379.137C625.428 379.264 625.323 379.369 625.197 379.443C625.07 379.516 624.927 379.556 624.781 379.557ZM630.732 369.208C630.586 369.21 630.442 369.176 630.313 369.107C630.119 368.995 629.976 368.81 629.917 368.594C629.857 368.377 629.885 368.146 629.995 367.95L632.962 362.784C633.077 362.592 633.262 362.453 633.477 362.393C633.692 362.334 633.922 362.36 634.119 362.465C634.31 362.58 634.449 362.766 634.506 362.982C634.562 363.198 634.531 363.428 634.421 363.622L631.453 368.788C631.38 368.915 631.275 369.02 631.149 369.094C631.022 369.168 630.879 369.207 630.732 369.208ZM636.667 358.859C636.522 358.858 636.378 358.823 636.248 358.758C636.057 358.643 635.918 358.457 635.861 358.241C635.805 358.025 635.835 357.795 635.946 357.601L638.914 352.435C639.029 352.244 639.213 352.104 639.429 352.045C639.644 351.985 639.874 352.011 640.071 352.116C640.262 352.231 640.401 352.417 640.457 352.633C640.514 352.849 640.483 353.079 640.372 353.273L637.405 358.439C637.329 358.567 637.221 358.674 637.092 358.747C636.962 358.821 636.816 358.859 636.667 358.859ZM642.619 348.51C642.473 348.511 642.329 348.476 642.2 348.409C642.008 348.294 641.87 348.108 641.813 347.892C641.757 347.676 641.787 347.446 641.898 347.252L644.865 342.086C644.978 341.896 645.159 341.757 645.371 341.697C645.584 341.638 645.811 341.663 646.006 341.767C646.197 341.883 646.336 342.067 646.395 342.282C646.455 342.498 646.429 342.727 646.324 342.924L643.34 348.091C643.267 348.217 643.162 348.323 643.035 348.396C642.909 348.47 642.765 348.509 642.619 348.51Z" fill="white"/>
<path d="M608.518 407.869C608.37 407.872 608.224 407.831 608.099 407.752C607.909 407.64 607.77 407.458 607.711 407.246C607.651 407.033 607.676 406.806 607.78 406.611L609.189 404.179C609.311 404.011 609.491 403.895 609.694 403.852C609.897 403.809 610.109 403.843 610.288 403.947C610.467 404.052 610.602 404.219 610.665 404.417C610.728 404.615 610.716 404.829 610.631 405.018L609.239 407.45C609.166 407.577 609.061 407.682 608.934 407.756C608.808 407.829 608.664 407.868 608.518 407.869Z" fill="white"/>
<path d="M509.686 288.178C509.497 288.181 509.312 288.117 509.165 287.997C509.017 287.878 508.917 287.71 508.882 287.523L508.245 284.806C508.22 284.698 508.217 284.587 508.235 284.477C508.254 284.368 508.294 284.264 508.353 284.17C508.413 284.077 508.49 283.996 508.58 283.932C508.671 283.869 508.773 283.824 508.882 283.8C508.988 283.773 509.1 283.767 509.209 283.784C509.318 283.8 509.422 283.839 509.516 283.897C509.61 283.955 509.691 284.031 509.755 284.121C509.819 284.211 509.864 284.313 509.888 284.421L510.508 287.154C510.558 287.37 510.521 287.597 510.405 287.786C510.289 287.974 510.103 288.109 509.888 288.161L509.686 288.178Z" fill="white"/>
<path d="M528.983 372.327C528.795 372.325 528.614 372.258 528.468 372.14C528.322 372.021 528.22 371.857 528.179 371.673L526.971 366.407C526.944 366.3 526.939 366.188 526.955 366.079C526.972 365.97 527.01 365.866 527.068 365.772C527.126 365.678 527.202 365.596 527.292 365.533C527.382 365.469 527.484 365.424 527.592 365.4C527.7 365.375 527.811 365.372 527.921 365.391C528.03 365.41 528.134 365.45 528.228 365.509C528.321 365.568 528.402 365.646 528.465 365.736C528.529 365.827 528.574 365.929 528.598 366.038L529.805 371.288C529.855 371.503 529.818 371.73 529.702 371.919C529.586 372.107 529.4 372.242 529.185 372.294L528.983 372.327ZM526.569 361.811C526.381 361.808 526.199 361.742 526.054 361.623C525.908 361.505 525.806 361.34 525.764 361.157L524.557 355.89C524.507 355.674 524.544 355.447 524.66 355.259C524.776 355.07 524.962 354.935 525.178 354.884C525.285 354.859 525.397 354.856 525.506 354.874C525.615 354.893 525.72 354.933 525.813 354.993C525.907 355.052 525.988 355.129 526.051 355.22C526.115 355.31 526.16 355.413 526.184 355.521L527.391 360.771C527.418 360.878 527.423 360.989 527.407 361.098C527.39 361.207 527.352 361.312 527.294 361.406C527.236 361.5 527.16 361.581 527.07 361.645C526.98 361.709 526.878 361.754 526.77 361.777L526.569 361.811ZM524.172 351.294C523.981 351.295 523.795 351.231 523.646 351.112C523.496 350.993 523.392 350.826 523.35 350.64L522.143 345.373C522.094 345.155 522.134 344.927 522.253 344.738C522.373 344.549 522.562 344.416 522.78 344.367C522.998 344.318 523.226 344.358 523.415 344.477C523.604 344.597 523.737 344.786 523.786 345.004L524.976 350.254C525.004 350.361 525.009 350.472 524.993 350.582C524.976 350.691 524.938 350.795 524.88 350.889C524.822 350.983 524.746 351.064 524.656 351.128C524.566 351.192 524.464 351.237 524.356 351.261L524.172 351.294ZM521.757 340.778C521.567 340.778 521.381 340.714 521.232 340.595C521.082 340.476 520.978 340.31 520.936 340.123L519.729 334.857C519.68 334.639 519.72 334.41 519.839 334.222C519.959 334.033 520.148 333.899 520.366 333.85C520.584 333.801 520.812 333.841 521.001 333.961C521.189 334.08 521.323 334.27 521.372 334.488L522.579 339.738C522.604 339.846 522.607 339.957 522.588 340.067C522.569 340.176 522.529 340.28 522.47 340.374C522.411 340.467 522.334 340.548 522.243 340.612C522.152 340.675 522.05 340.72 521.942 340.744L521.757 340.778ZM519.343 330.244C519.154 330.249 518.969 330.188 518.819 330.072C518.669 329.956 518.564 329.792 518.522 329.607L517.315 324.34C517.266 324.122 517.305 323.894 517.425 323.705C517.544 323.516 517.734 323.383 517.952 323.334C518.17 323.285 518.398 323.324 518.587 323.444C518.775 323.564 518.909 323.753 518.958 323.971L520.165 329.221C520.189 329.329 520.193 329.441 520.174 329.55C520.155 329.659 520.115 329.763 520.056 329.857C519.997 329.951 519.919 330.032 519.829 330.095C519.738 330.159 519.636 330.204 519.528 330.227L519.343 330.244ZM516.929 319.728C516.74 319.732 516.554 319.672 516.405 319.555C516.255 319.439 516.15 319.275 516.108 319.09L514.9 313.824C514.876 313.716 514.873 313.604 514.892 313.495C514.911 313.386 514.951 313.282 515.011 313.188C515.07 313.095 515.147 313.014 515.237 312.95C515.328 312.887 515.43 312.841 515.538 312.817C515.645 312.793 515.757 312.79 515.866 312.809C515.975 312.828 516.079 312.868 516.172 312.927C516.266 312.987 516.347 313.064 516.41 313.154C516.474 313.244 516.519 313.347 516.543 313.454L517.751 318.704C517.775 318.812 517.778 318.924 517.76 319.033C517.741 319.142 517.701 319.247 517.642 319.34C517.582 319.434 517.505 319.515 517.415 319.578C517.324 319.642 517.222 319.687 517.113 319.711L516.929 319.728ZM514.515 309.211C514.324 309.212 514.138 309.147 513.989 309.028C513.84 308.91 513.735 308.743 513.693 308.557L512.486 303.307C512.462 303.199 512.459 303.087 512.478 302.978C512.497 302.869 512.537 302.765 512.596 302.672C512.656 302.578 512.733 302.497 512.823 302.434C512.913 302.37 513.015 302.325 513.123 302.301C513.231 302.276 513.343 302.274 513.452 302.292C513.561 302.311 513.665 302.352 513.758 302.411C513.852 302.47 513.932 302.547 513.996 302.637C514.06 302.728 514.105 302.83 514.129 302.938L515.336 308.188C515.361 308.296 515.364 308.408 515.345 308.517C515.327 308.626 515.287 308.73 515.227 308.824C515.168 308.917 515.091 308.998 515 309.062C514.91 309.125 514.807 309.17 514.699 309.194L514.515 309.211ZM512.101 298.694C511.91 298.695 511.724 298.631 511.575 298.512C511.425 298.393 511.321 298.227 511.279 298.04L510.072 292.79C510.047 292.682 510.043 292.57 510.061 292.461C510.079 292.352 510.118 292.247 510.176 292.153C510.235 292.058 510.311 291.977 510.401 291.912C510.491 291.847 510.593 291.801 510.701 291.775C510.809 291.75 510.92 291.746 511.03 291.764C511.139 291.782 511.244 291.821 511.338 291.88C511.432 291.938 511.514 292.015 511.579 292.105C511.643 292.195 511.69 292.297 511.715 292.404L512.922 297.671C512.947 297.779 512.95 297.891 512.931 298C512.913 298.109 512.872 298.214 512.813 298.307C512.754 298.401 512.677 298.482 512.586 298.545C512.495 298.609 512.393 298.654 512.285 298.678L512.101 298.694Z" fill="white"/>
<path d="M530.827 380.311C530.637 380.312 530.451 380.248 530.302 380.129C530.152 380.01 530.048 379.844 530.006 379.657L529.386 376.923C529.358 376.816 529.353 376.705 529.369 376.596C529.386 376.487 529.424 376.382 529.482 376.288C529.54 376.195 529.616 376.113 529.706 376.049C529.796 375.986 529.898 375.941 530.006 375.917C530.114 375.892 530.226 375.889 530.335 375.908C530.444 375.926 530.548 375.967 530.642 376.026C530.735 376.085 530.816 376.162 530.88 376.253C530.943 376.344 530.988 376.446 531.012 376.554L531.632 379.288C531.66 379.395 531.665 379.506 531.648 379.616C531.632 379.725 531.593 379.829 531.536 379.923C531.478 380.017 531.401 380.098 531.311 380.162C531.222 380.226 531.12 380.271 531.012 380.295L530.827 380.311Z" fill="white"/>
<path d="M594.083 288.748H593.949C593.84 288.732 593.735 288.694 593.641 288.637C593.546 288.58 593.464 288.505 593.399 288.416C593.333 288.327 593.286 288.226 593.26 288.119C593.233 288.012 593.228 287.901 593.245 287.792L593.698 285.024C593.714 284.916 593.752 284.812 593.809 284.718C593.866 284.624 593.941 284.543 594.03 284.479C594.119 284.415 594.22 284.369 594.327 284.345C594.434 284.32 594.545 284.318 594.653 284.337C594.872 284.374 595.067 284.494 595.198 284.673C595.33 284.851 595.387 285.073 595.357 285.293L594.905 288.06C594.87 288.253 594.768 288.427 594.618 288.553C594.468 288.678 594.279 288.747 594.083 288.748Z" fill="white"/>
<path d="M581.392 367.547H581.258C581.149 367.531 581.044 367.493 580.949 367.436C580.855 367.379 580.773 367.304 580.707 367.215C580.642 367.127 580.595 367.026 580.568 366.919C580.542 366.812 580.537 366.7 580.553 366.591L581.459 360.956C581.494 360.735 581.616 360.538 581.797 360.408C581.977 360.277 582.203 360.224 582.423 360.259C582.643 360.295 582.84 360.417 582.97 360.598C583.101 360.778 583.154 361.004 583.119 361.224L582.213 366.86C582.178 367.052 582.077 367.226 581.927 367.352C581.777 367.477 581.587 367.547 581.392 367.547ZM583.202 356.293H583.068C582.959 356.276 582.854 356.239 582.76 356.182C582.666 356.125 582.583 356.05 582.518 355.961C582.452 355.872 582.405 355.771 582.379 355.664C582.352 355.557 582.347 355.446 582.364 355.337L583.269 349.701C583.31 349.482 583.435 349.288 583.616 349.16C583.798 349.031 584.022 348.979 584.242 349.013C584.35 349.029 584.455 349.067 584.548 349.124C584.642 349.182 584.723 349.257 584.787 349.346C584.851 349.435 584.897 349.536 584.921 349.643C584.946 349.75 584.948 349.861 584.929 349.969L584.024 355.605C583.989 355.797 583.887 355.972 583.737 356.097C583.587 356.223 583.398 356.292 583.202 356.293ZM585.013 345.038H584.879C584.661 345.001 584.465 344.88 584.334 344.702C584.203 344.524 584.146 344.302 584.175 344.082L585.08 338.446C585.121 338.227 585.245 338.031 585.426 337.9C585.607 337.769 585.831 337.712 586.053 337.742C586.271 337.783 586.465 337.907 586.593 338.089C586.722 338.27 586.774 338.495 586.74 338.715L585.835 344.334C585.803 344.529 585.703 344.707 585.553 344.836C585.402 344.965 585.211 345.037 585.013 345.038ZM586.824 333.767H586.69C586.58 333.748 586.476 333.709 586.382 333.65C586.288 333.591 586.207 333.514 586.143 333.424C586.079 333.333 586.034 333.231 586.01 333.123C585.986 333.015 585.983 332.903 586.002 332.794L586.908 327.175C586.913 327.056 586.943 326.94 586.996 326.835C587.049 326.729 587.124 326.635 587.216 326.561C587.308 326.486 587.415 326.431 587.529 326.401C587.644 326.37 587.763 326.364 587.88 326.383C587.997 326.403 588.109 326.446 588.207 326.512C588.306 326.577 588.39 326.662 588.453 326.763C588.517 326.863 588.558 326.975 588.575 327.092C588.592 327.21 588.583 327.329 588.551 327.443L587.645 333.062C587.617 333.259 587.518 333.439 587.367 333.569C587.216 333.698 587.023 333.769 586.824 333.767ZM588.634 322.512H588.5C588.391 322.494 588.287 322.454 588.193 322.395C588.099 322.336 588.018 322.259 587.954 322.169C587.89 322.078 587.845 321.976 587.82 321.868C587.796 321.76 587.794 321.648 587.813 321.539L588.718 315.92C588.735 315.811 588.772 315.706 588.829 315.612C588.886 315.517 588.961 315.435 589.05 315.37C589.139 315.304 589.24 315.257 589.347 315.231C589.454 315.204 589.565 315.199 589.674 315.216C589.894 315.257 590.089 315.381 590.22 315.562C590.351 315.743 590.408 315.967 590.378 316.189L589.473 321.808C589.441 322.006 589.338 322.186 589.184 322.316C589.031 322.445 588.835 322.515 588.634 322.512ZM590.445 311.257H590.311C590.202 311.241 590.098 311.203 590.005 311.146C589.911 311.089 589.83 311.014 589.766 310.924C589.702 310.835 589.656 310.734 589.632 310.627C589.607 310.52 589.604 310.409 589.624 310.301L590.529 304.682C590.543 304.572 590.579 304.466 590.636 304.371C590.692 304.275 590.767 304.192 590.856 304.126C590.946 304.06 591.047 304.013 591.155 303.988C591.263 303.962 591.375 303.959 591.485 303.978C591.594 303.994 591.698 304.032 591.793 304.089C591.887 304.146 591.969 304.221 592.035 304.31C592.1 304.399 592.148 304.499 592.174 304.607C592.2 304.714 592.205 304.825 592.189 304.934L591.283 310.57C591.248 310.765 591.144 310.941 590.99 311.067C590.837 311.193 590.644 311.261 590.445 311.257ZM592.256 300.003H592.122C591.904 299.966 591.711 299.845 591.582 299.666C591.453 299.487 591.4 299.264 591.434 299.047L592.34 293.411C592.375 293.191 592.497 292.994 592.678 292.863C592.858 292.733 593.084 292.679 593.304 292.715C593.524 292.75 593.721 292.872 593.851 293.053C593.982 293.234 594.035 293.459 593.999 293.679L593.094 299.315C593.058 299.51 592.954 299.687 592.801 299.813C592.647 299.939 592.454 300.006 592.256 300.003Z" fill="white"/>
<path d="M580.034 375.934H579.9C579.68 375.893 579.485 375.769 579.354 375.588C579.223 375.407 579.166 375.182 579.196 374.961L579.648 372.193C579.664 372.085 579.702 371.981 579.759 371.887C579.817 371.793 579.892 371.712 579.981 371.648C580.07 371.584 580.171 371.538 580.278 371.514C580.385 371.489 580.496 371.486 580.604 371.506C580.713 371.522 580.818 371.56 580.912 371.617C581.006 371.674 581.089 371.749 581.154 371.837C581.22 371.926 581.267 372.027 581.293 372.134C581.32 372.241 581.325 372.353 581.308 372.462L580.855 375.229C580.827 375.426 580.728 375.606 580.577 375.736C580.426 375.865 580.233 375.936 580.034 375.934Z" fill="white"/>
<path d="M593.295 413.354C581.308 399.433 584.342 390.274 590.009 381.938L595.525 410.234L593.295 413.354Z" fill="url(#paint11_linear_501_1000)"/>
<path d="M593.295 413.354C587.919 402.888 586.824 392.416 590.009 381.938C578.156 385.964 570.729 393.025 570.042 404.666L593.295 413.354Z" fill="url(#paint12_linear_501_1000)"/>
<path d="M578.391 536.484H592.138C593.25 536.484 594.15 535.583 594.15 534.471V509.85C594.15 508.739 593.25 507.838 592.138 507.838H578.391C577.28 507.838 576.379 508.739 576.379 509.85V534.471C576.379 535.583 577.28 536.484 578.391 536.484Z" fill="url(#paint13_linear_501_1000)"/>
<path d="M499.627 538.983H513.375C514.486 538.983 515.387 538.082 515.387 536.97V512.35C515.387 511.238 514.486 510.337 513.375 510.337H499.627C498.516 510.337 497.615 511.238 497.615 512.35V536.97C497.615 538.082 498.516 538.983 499.627 538.983Z" fill="url(#paint14_linear_501_1000)"/>
<path d="M541.725 395.91C585.617 395.91 621.998 420.197 628.57 451.915H634.957C637.069 451.915 639.095 452.754 640.588 454.248C642.082 455.743 642.921 457.769 642.921 459.882V477.125C642.921 479.238 642.082 481.264 640.588 482.758C639.095 484.252 637.069 485.092 634.957 485.092H624.278C611.938 510.469 579.631 528.567 541.725 528.567C493.172 528.567 453.807 498.879 453.807 462.247C453.807 425.615 493.172 395.91 541.725 395.91Z" fill="url(#paint15_linear_501_1000)"/>
<path d="M501.572 407.735C517.918 402.435 527.256 400.892 541.993 401.043C542.223 401.043 542.444 400.954 542.61 400.794C542.776 400.635 542.873 400.417 542.882 400.187C542.886 400.07 542.867 399.953 542.825 399.843C542.783 399.733 542.72 399.633 542.639 399.549C542.557 399.464 542.459 399.397 542.351 399.351C542.243 399.305 542.127 399.281 542.01 399.281C527.038 399.114 517.549 400.69 501.019 406.041C500.902 406.08 500.795 406.142 500.704 406.225C500.613 406.307 500.54 406.407 500.49 406.519C500.439 406.631 500.413 406.752 500.411 406.875C500.41 406.997 500.434 407.119 500.482 407.232C500.568 407.437 500.728 407.602 500.929 407.695C501.131 407.788 501.36 407.803 501.572 407.735Z" fill="url(#paint16_linear_501_1000)"/>
<path d="M578.257 410.419C562.078 391.633 566.169 379.255 573.831 368.017L581.274 406.225L578.257 410.419Z" fill="url(#paint17_linear_501_1000)"/>
<path d="M578.257 410.419C571.003 396.274 569.528 382.14 573.831 368.017C557.837 373.451 547.794 382.961 546.855 398.694L578.257 410.419Z" fill="url(#paint18_linear_501_1000)"/>
<path d="M463.498 452.2L463.397 451.395C463.38 451.261 463.364 451.127 463.347 450.959C463.33 450.791 463.246 450.472 463.196 450.187C463.146 449.902 463.079 449.617 463.012 449.298C462.945 448.98 462.844 448.728 462.743 448.409C462.283 446.927 461.599 445.524 460.715 444.25C459.505 442.459 457.94 440.937 456.117 439.777C454.294 438.617 452.253 437.844 450.119 437.507C449.515 437.423 448.895 437.373 448.275 437.339H446.498L446.313 437.373L445.928 437.406L445.492 437.473L444.368 437.708C442.334 438.225 440.458 439.233 438.903 440.644C437.869 441.608 436.992 442.729 436.304 443.965C435.621 445.219 435.156 446.58 434.93 447.99C434.827 448.69 434.782 449.396 434.795 450.103V450.976L434.829 451.194L434.879 451.613L434.997 452.234C435.022 452.433 435.067 452.63 435.131 452.821L435.298 453.357C435.408 453.708 435.542 454.05 435.701 454.381C435.852 454.719 436.02 455.049 436.204 455.37C436.388 455.672 436.623 455.974 436.824 456.276C437.677 457.416 438.762 458.361 440.008 459.049C441.254 459.737 442.632 460.153 444.05 460.268C444.385 460.301 444.737 460.301 445.073 460.301H445.659L446.045 460.251C446.225 460.235 446.405 460.207 446.582 460.167L447.152 460.05C447.487 459.95 447.817 459.832 448.141 459.698C449.354 459.197 450.427 458.408 451.269 457.4C452.11 456.392 452.693 455.195 452.969 453.911C453.038 453.613 453.083 453.31 453.103 453.005L453.154 452.552V451.613L453.12 451.261C453.075 450.943 453.008 450.629 452.919 450.322C452.746 449.76 452.51 449.219 452.215 448.711C451.919 448.238 451.564 447.804 451.158 447.42C450.46 446.739 449.614 446.227 448.687 445.925C447.76 445.623 446.776 445.537 445.81 445.675C445.033 445.797 444.293 446.092 443.646 446.54C442.999 446.987 442.461 447.574 442.072 448.258C441.797 448.743 441.605 449.271 441.502 449.818C441.42 450.221 441.392 450.633 441.418 451.043C441.423 451.308 441.457 451.573 441.518 451.831C441.569 451.999 441.585 452.083 441.585 452.083C441.65 452.343 441.815 452.567 442.045 452.705C442.274 452.844 442.549 452.885 442.809 452.821C443.069 452.756 443.293 452.591 443.432 452.361C443.57 452.132 443.611 451.856 443.547 451.596V451.563C443.532 451.513 443.521 451.463 443.513 451.412C443.488 451.279 443.483 451.143 443.497 451.009C443.521 450.451 443.701 449.91 444.016 449.449C444.235 449.124 444.521 448.85 444.855 448.644C445.036 448.538 445.227 448.448 445.425 448.376C445.625 448.306 445.834 448.261 446.045 448.242H446.464L446.867 448.275C447.135 448.327 447.398 448.399 447.655 448.493C448.198 448.702 448.682 449.042 449.063 449.483C449.47 449.951 449.747 450.518 449.868 451.127C449.881 451.187 449.887 451.249 449.884 451.311V451.965C449.868 451.814 449.868 451.932 449.868 451.898V452.318C449.86 452.409 449.844 452.498 449.817 452.586C449.792 452.762 449.753 452.936 449.7 453.106C449.489 453.798 449.114 454.428 448.605 454.942C448.097 455.456 447.472 455.839 446.783 456.058C446.608 456.116 446.428 456.161 446.246 456.192L446.028 456.226H445.14C444.943 456.219 444.746 456.196 444.553 456.159C443.764 456.022 443.011 455.725 442.34 455.286C441.675 454.842 441.114 454.258 440.697 453.575C440.493 453.239 440.319 452.886 440.177 452.519C440.127 452.334 440.06 452.15 440.026 451.965L439.959 451.68C439.942 451.579 439.942 451.529 439.926 451.445C439.923 451.372 439.911 451.298 439.892 451.227V450.422C439.875 450.389 439.892 450.657 439.892 450.523L439.926 450.221C439.945 449.802 440.007 449.386 440.11 448.98C440.302 448.195 440.631 447.452 441.082 446.782C441.52 446.122 442.064 445.538 442.692 445.055C443.588 444.403 444.62 443.962 445.71 443.763L446.112 443.713H447.168C447.319 443.713 446.984 443.73 447.034 443.73H447.302L447.872 443.78L448.929 443.965C450.208 444.296 451.403 444.897 452.433 445.726C453.28 446.417 453.986 447.266 454.512 448.225C454.924 448.94 455.224 449.716 455.4 450.523C455.417 450.674 455.484 450.858 455.484 450.976C455.484 451.093 455.501 451.194 455.517 451.294L455.568 451.579C455.568 451.73 455.585 451.881 455.585 452.016C455.601 452.552 455.618 452.821 455.618 452.821C455.654 453.871 456.105 454.863 456.872 455.58C457.639 456.298 458.659 456.68 459.709 456.645C460.758 456.609 461.75 456.158 462.467 455.391C463.184 454.623 463.567 453.602 463.531 452.552C463.515 452.418 463.498 452.301 463.498 452.2Z" fill="url(#paint19_linear_501_1000)"/>
<path opacity="0.7" d="M478.989 498.896C478.86 498.893 478.736 498.845 478.637 498.762C470.975 492.606 465.09 485.511 461.117 477.678C461.083 477.614 461.063 477.543 461.057 477.47C461.051 477.397 461.061 477.324 461.084 477.255C461.108 477.186 461.145 477.122 461.194 477.068C461.243 477.014 461.302 476.971 461.369 476.94C461.433 476.905 461.504 476.884 461.578 476.877C461.651 476.87 461.725 476.877 461.795 476.899C461.865 476.921 461.931 476.957 461.987 477.004C462.043 477.051 462.089 477.11 462.123 477.175C466.013 484.857 471.813 491.835 479.341 497.89C479.429 497.964 479.493 498.064 479.524 498.175C479.554 498.287 479.55 498.405 479.512 498.514C479.474 498.624 479.403 498.718 479.31 498.787C479.216 498.855 479.105 498.893 478.989 498.896Z" fill="white"/>
<path opacity="0.7" d="M547.006 520.969C527.927 520.969 508.161 516.206 492.284 507.719C492.153 507.65 492.054 507.531 492.01 507.39C491.966 507.248 491.98 507.095 492.049 506.964C492.118 506.832 492.236 506.734 492.378 506.69C492.519 506.646 492.672 506.66 492.804 506.729C509.368 515.585 530.241 520.348 550.057 519.812C570.712 519.241 588.349 513.136 599.716 502.636C599.769 502.584 599.832 502.543 599.901 502.516C599.97 502.49 600.044 502.477 600.118 502.48C600.192 502.484 600.264 502.502 600.331 502.535C600.397 502.567 600.456 502.613 600.504 502.67C600.601 502.78 600.652 502.924 600.646 503.071C600.64 503.218 600.577 503.356 600.471 503.458C588.903 514.159 571.014 520.365 550.091 520.936L547.006 520.969Z" fill="white"/>
<path d="M567.711 496.025C584.42 479.309 584.42 452.206 567.711 435.49C551.002 418.774 523.912 418.774 507.204 435.49C490.495 452.206 490.495 479.309 507.204 496.025C523.912 512.741 551.002 512.741 567.711 496.025Z" fill="url(#paint20_linear_501_1000)"/>
<path d="M566.703 495.017C582.856 478.857 582.856 452.658 566.703 436.498C550.551 420.339 524.363 420.339 508.211 436.498C492.059 452.658 492.059 478.857 508.211 495.017C524.363 511.176 550.551 511.176 566.703 495.017Z" fill="url(#paint21_linear_501_1000)"/>
<path opacity="0.7" d="M503.953 448.158C503.828 448.156 503.707 448.121 503.6 448.057C503.424 447.958 503.293 447.794 503.237 447.599C503.18 447.405 503.202 447.196 503.299 447.017C506.752 440.673 511.908 435.42 518.184 431.849C524.461 428.279 531.609 426.532 538.825 426.806C541.176 426.894 543.515 427.186 545.816 427.678C545.915 427.7 546.009 427.741 546.092 427.799C546.175 427.858 546.246 427.932 546.301 428.017C546.355 428.103 546.392 428.199 546.41 428.299C546.427 428.399 546.425 428.501 546.403 428.601C546.385 428.7 546.347 428.795 546.291 428.88C546.235 428.964 546.162 429.036 546.077 429.091C545.992 429.146 545.897 429.183 545.797 429.2C545.698 429.216 545.595 429.212 545.497 429.188C543.279 428.714 541.024 428.433 538.758 428.349C531.832 428.092 524.972 429.772 518.948 433.2C512.924 436.628 507.975 441.668 504.657 447.755C504.588 447.881 504.486 447.986 504.362 448.057C504.237 448.128 504.096 448.163 503.953 448.158Z" fill="white"/>
<path opacity="0.78" d="M563.077 491.453C576.747 477.776 576.747 455.602 563.077 441.925C549.406 428.248 527.241 428.248 513.57 441.925C499.9 455.602 499.9 477.776 513.57 491.453C527.241 505.13 549.406 505.13 563.077 491.453Z" fill="white"/>
<path d="M515.906 482.928L528.447 466.625C529.302 465.535 530.224 464.478 531.096 463.421L531.397 463.019H517.7C517.315 462.985 517.08 462.784 517.08 462.381C517.063 461.039 517.063 459.714 517.08 458.373C517.08 457.987 517.331 457.769 517.717 457.752H538.422C539.311 457.752 539.462 457.903 539.462 458.809C539.462 459.714 539.495 460.469 539.445 461.291C539.44 461.581 539.347 461.862 539.177 462.096C534.695 467.933 530.213 473.753 525.731 479.557C525.261 480.177 524.758 480.764 524.188 481.435H538.674C539.512 481.435 539.68 481.603 539.68 482.442C539.691 483.571 539.691 484.695 539.68 485.813C539.68 486.534 539.495 486.736 538.774 486.736H516.845C516.46 486.736 516.124 486.668 515.906 486.316V482.928Z" fill="url(#paint22_linear_501_1000)"/>
<path d="M551.952 459.563L552.455 459.194C553.712 458.255 554.936 457.316 556.193 456.393C557.451 455.471 558.708 456.108 558.96 457.383C559.127 458.154 558.792 458.741 558.188 459.194L554.349 462.079C553.662 462.582 552.991 463.119 552.287 463.606C552.171 463.68 552.078 463.785 552.019 463.91C551.959 464.034 551.936 464.173 551.952 464.31V485.645C551.952 486.585 551.818 486.719 550.879 486.719H546.805C545.765 486.719 545.631 486.585 545.631 485.561V468.621L545.212 468.923C543.737 470.03 542.261 471.153 540.769 472.244C539.663 473.049 538.221 472.495 538.003 471.187C537.869 470.449 538.188 469.879 538.774 469.443L542.58 466.591C543.469 465.92 544.357 465.233 545.279 464.578C545.399 464.502 545.496 464.394 545.561 464.268C545.626 464.141 545.656 463.999 545.648 463.857C545.637 457.852 545.631 451.848 545.631 445.843C545.631 444.954 545.799 444.786 546.687 444.786H551.063C551.751 444.786 551.952 444.988 551.952 445.692V459.563Z" fill="url(#paint23_linear_501_1000)"/>
<path d="M605.601 447.806C607.832 447.806 609.641 445.996 609.641 443.763C609.641 441.531 607.832 439.721 605.601 439.721C603.37 439.721 601.561 441.531 601.561 443.763C601.561 445.996 603.37 447.806 605.601 447.806Z" fill="white"/>
</g>
<defs>
<filter id="filter0_d_501_1000" x="16" y="-10" width="821" height="713" filterUnits="userSpaceOnUse" color-interpolation-filters="sRGB">
<feFlood flood-opacity="0" result="BackgroundImageFix"/>
<feColorMatrix in="SourceAlpha" type="matrix" values="0 0 0 0 0 0 0 0 0 0 0 0 0 0 0 0 0 0 127 0" result="hardAlpha"/>
<feOffset dy="4"/>
<feGaussianBlur stdDeviation="2"/>
<feComposite in2="hardAlpha" operator="out"/>
<feColorMatrix type="matrix" values="0 0 0 0 0 0 0 0 0 0 0 0 0 0 0 0 0 0 0.14 0"/>
<feBlend mode="normal" in2="BackgroundImageFix" result="effect1_dropShadow_501_1000"/>
<feBlend mode="normal" in="SourceGraphic" in2="effect1_dropShadow_501_1000" result="shape"/>
</filter>
<linearGradient id="paint0_linear_501_1000" x1="395.967" y1="254.935" x2="623.17" y2="395.984" gradientUnits="userSpaceOnUse">
<stop stop-color="#50E7B7"/>
<stop offset="1" stop-color="#323992"/>
</linearGradient>
<linearGradient id="paint1_linear_501_1000" x1="366274" y1="-22047.9" x2="434070" y2="46536" gradientUnits="userSpaceOnUse">
<stop stop-color="#50E7B7"/>
<stop offset="1" stop-color="#323992"/>
</linearGradient>
<linearGradient id="paint2_linear_501_1000" x1="619.344" y1="-18.0738" x2="615.983" y2="41.2887" gradientUnits="userSpaceOnUse">
<stop stop-color="#FF928E"/>
<stop offset="1" stop-color="#FE7062"/>
</linearGradient>
<linearGradient id="paint3_linear_501_1000" x1="126615" y1="66662.6" x2="147122" y2="-35329.9" gradientUnits="userSpaceOnUse">
<stop stop-color="#FF928E"/>
<stop offset="1" stop-color="#FE7062"/>
</linearGradient>
<linearGradient id="paint4_linear_501_1000" x1="619.344" y1="-18.0738" x2="615.983" y2="41.2887" gradientUnits="userSpaceOnUse">
<stop stop-color="#FF928E"/>
<stop offset="1" stop-color="#FE7062"/>
</linearGradient>
<linearGradient id="paint5_linear_501_1000" x1="256962" y1="-43565.6" x2="255130" y2="-11202.1" gradientUnits="userSpaceOnUse">
<stop stop-color="#FF928E"/>
<stop offset="1" stop-color="#FE7062"/>
</linearGradient>
<linearGradient id="paint6_linear_501_1000" x1="173562" y1="36315.1" x2="194052" y2="-65585.9" gradientUnits="userSpaceOnUse">
<stop stop-color="#FF928E"/>
<stop offset="1" stop-color="#FE7062"/>
</linearGradient>
<linearGradient id="paint7_linear_501_1000" x1="112439" y1="-47753.7" x2="110731" y2="-17598.3" gradientUnits="userSpaceOnUse">
<stop stop-color="#FF928E"/>
<stop offset="1" stop-color="#FE7062"/>
</linearGradient>
<linearGradient id="paint8_linear_501_1000" x1="91319.3" y1="62508.1" x2="110412" y2="-32447.3" gradientUnits="userSpaceOnUse">
<stop stop-color="#FF928E"/>
<stop offset="1" stop-color="#FE7062"/>
</linearGradient>
<linearGradient id="paint9_linear_501_1000" x1="156955" y1="-49388.9" x2="155119" y2="-16966" gradientUnits="userSpaceOnUse">
<stop stop-color="#FF928E"/>
<stop offset="1" stop-color="#FE7062"/>
</linearGradient>
<linearGradient id="paint10_linear_501_1000" x1="124072" y1="65952.5" x2="144607" y2="-36177" gradientUnits="userSpaceOnUse">
<stop stop-color="#FF928E"/>
<stop offset="1" stop-color="#FE7062"/>
</linearGradient>
<linearGradient id="paint11_linear_501_1000" x1="-17184.8" y1="-236507" x2="-13441.7" y2="-233739" gradientUnits="userSpaceOnUse">
<stop stop-color="#FF928E"/>
<stop offset="1" stop-color="#FE7062"/>
</linearGradient>
<linearGradient id="paint12_linear_501_1000" x1="50103.7" y1="61766.6" x2="58459" y2="51544.9" gradientUnits="userSpaceOnUse">
<stop stop-color="#FF928E"/>
<stop offset="1" stop-color="#FE7062"/>
</linearGradient>
<linearGradient id="paint13_linear_501_1000" x1="-42871.9" y1="-241905" x2="-39119.2" y2="-236750" gradientUnits="userSpaceOnUse">
<stop stop-color="#FF928E"/>
<stop offset="1" stop-color="#FE7062"/>
</linearGradient>
<linearGradient id="paint14_linear_501_1000" x1="-49689.7" y1="-236290" x2="-45937.1" y2="-231134" gradientUnits="userSpaceOnUse">
<stop stop-color="#FF928E"/>
<stop offset="1" stop-color="#FE7062"/>
</linearGradient>
<linearGradient id="paint15_linear_501_1000" x1="588.378" y1="422.326" x2="462.384" y2="539.866" gradientUnits="userSpaceOnUse">
<stop stop-color="#FEBBBA"/>
<stop offset="1" stop-color="#FF928E"/>
</linearGradient>
<linearGradient id="paint16_linear_501_1000" x1="545.246" y1="400.812" x2="502.464" y2="403.377" gradientUnits="userSpaceOnUse">
<stop stop-color="#E1473D"/>
<stop offset="1" stop-color="#E9605A"/>
</linearGradient>
<linearGradient id="paint17_linear_501_1000" x1="-23969.5" y1="-318208" x2="-18916.3" y2="-314469" gradientUnits="userSpaceOnUse">
<stop stop-color="#FF928E"/>
<stop offset="1" stop-color="#FE7062"/>
</linearGradient>
<linearGradient id="paint18_linear_501_1000" x1="-54674.6" y1="-317100" x2="-49977" y2="-309397" gradientUnits="userSpaceOnUse">
<stop stop-color="#FEBBBA"/>
<stop offset="1" stop-color="#FF928E"/>
</linearGradient>
<linearGradient id="paint19_linear_501_1000" x1="-70128.5" y1="-164201" x2="-68301.6" y2="-159137" gradientUnits="userSpaceOnUse">
<stop stop-color="#FEBBBA"/>
<stop offset="1" stop-color="#FF928E"/>
</linearGradient>
<linearGradient id="paint20_linear_501_1000" x1="241976" y1="100654" x2="233368" y2="118036" gradientUnits="userSpaceOnUse">
<stop stop-color="#E1473D"/>
<stop offset="1" stop-color="#E9605A"/>
</linearGradient>
<linearGradient id="paint21_linear_501_1000" x1="233932" y1="97316.3" x2="225611" y2="114120" gradientUnits="userSpaceOnUse">
<stop stop-color="#FF928E"/>
<stop offset="1" stop-color="#FE7062"/>
</linearGradient>
<linearGradient id="paint22_linear_501_1000" x1="40853.1" y1="70490.9" x2="44225.4" y2="70490.9" gradientUnits="userSpaceOnUse">
<stop stop-color="#FF928E"/>
<stop offset="1" stop-color="#FE7062"/>
</linearGradient>
<linearGradient id="paint23_linear_501_1000" x1="38975.1" y1="100147" x2="41613.5" y2="100147" gradientUnits="userSpaceOnUse">
<stop stop-color="#FF928E"/>
<stop offset="1" stop-color="#FE7062"/>
</linearGradient>
<clipPath id="clip0_501_1000">
<rect width="419" height="392" fill="white" transform="translate(311 147)"/>
</clipPath>
</defs>
</svg>
